<?xml version="1.0" encoding="iso-8859-1"?>
<!-- Generator: Adobe Illustrator 27.7.0, SVG Export Plug-In . SVG Version: 6.00 Build 0)  -->
<svg version="1.1" id="Layer_1" xmlns="http://www.w3.org/2000/svg" xmlns:xlink="http://www.w3.org/1999/xlink" x="0px" y="0px"
	 viewBox="0 0 600 600" style="enable-background:new 0 0 600 600;" xml:space="preserve">
<g>
	<circle style="fill:none;stroke:#FFFFFF;stroke-width:15;stroke-miterlimit:10;" cx="144.199" cy="300" r="47.174"/>
	<path style="fill:none;stroke:#FFFFFF;stroke-width:15;stroke-miterlimit:10;" d="M103.745,216.252l13.189-7.327
		c2.252-1.251,3.804-3.467,4.211-6.01l2.942-18.389c0.651-4.071,4.164-7.066,8.286-7.066h23.703c4,0,7.444,2.823,8.229,6.746
		l3.764,18.819c0.496,2.479,2.083,4.603,4.32,5.78l14.508,7.636c2.693,1.418,5.943,1.266,8.493-0.397l17.022-11.101
		c3.444-2.246,8.009-1.666,10.781,1.371l15.426,16.895c2.649,2.901,2.931,7.252,0.678,10.471l-9.978,14.254
		c-1.665,2.379-1.982,5.449-0.838,8.118l7.052,16.456c1.079,2.518,3.32,4.351,6.002,4.91l17.344,3.613
		c3.891,0.811,6.68,4.24,6.68,8.215v20.149c0,3.612-2.311,6.819-5.738,7.961l-18.961,6.32c-2.292,0.764-4.143,2.478-5.08,4.705
		l-6.322,15.014c-1.031,2.448-0.842,5.239,0.509,7.526l9.873,16.709c1.948,3.297,1.417,7.495-1.291,10.203l-17.285,17.285
		c-2.993,2.993-7.745,3.288-11.086,0.69l-11.547-8.981c-2.372-1.845-5.549-2.281-8.329-1.143l-17.365,7.104
		c-2.557,1.046-4.436,3.284-5.023,5.984l-3.571,16.425c-0.816,3.755-4.08,6.476-7.921,6.604l-22.006,0.734
		c-3.983,0.133-7.51-2.554-8.44-6.429l-4.495-18.731c-0.619-2.577-2.418-4.711-4.854-5.755l-16.435-7.044
		c-2.759-1.182-5.939-0.801-8.341,1L77.97,395.989c-3.341,2.506-8.016,2.173-10.969-0.78l-16.832-16.832
		c-2.953-2.953-3.285-7.628-0.78-10.969l10.468-13.957c1.771-2.362,2.171-5.48,1.054-8.212l-7.107-17.372
		c-1.065-2.603-3.363-4.5-6.121-5.051l-18.097-3.619c-4.023-0.805-6.874-4.399-6.742-8.499l0.742-23
		c0.123-3.805,2.791-7.05,6.5-7.906l19.865-4.584c2.805-0.647,5.083-2.687,6.034-5.405l5.307-15.162
		c0.892-2.549,0.503-5.372-1.046-7.585L50.057,232.5c-2.253-3.219-1.971-7.569,0.678-10.471l15.376-16.841
		c2.794-3.06,7.404-3.623,10.852-1.324l18.052,12.035C97.629,217.642,100.998,217.778,103.745,216.252z"/>
</g>
<g>
	<path style="fill:none;stroke:#FFFFFF;stroke-width:15;stroke-miterlimit:10;" d="M389.151,128.996h-45.673
		c-6.039,0-10.935,4.896-10.935,10.935v364.953c0,6.039,4.896,10.935,10.935,10.935h44.494"/>
	
		<line style="fill:none;stroke:#FFFFFF;stroke-width:15;stroke-miterlimit:10;" x1="297.162" y1="322.407" x2="386.792" y2="322.407"/>
	<g>
		<path style="fill:none;stroke:#FFFFFF;stroke-width:15;stroke-miterlimit:10;" d="M418.045,76.632v99.728
			c0,4.454,3.611,8.065,8.065,8.065h134.825c4.454,0,8.065-3.611,8.065-8.065v-64.065c0-4.454-3.611-8.065-8.065-8.065h-35.768
			c-2.139,0-4.19-0.85-5.703-2.362L486.57,68.973c-1.583-1.583-3.753-2.437-5.991-2.357l-54.757,1.956
			C421.482,68.727,418.045,72.29,418.045,76.632z"/>
		<path style="fill:none;stroke:#FFFFFF;stroke-width:15;stroke-miterlimit:10;" d="M436.914,68.849V41.087
			c0-5.51,4.467-9.977,9.977-9.977h92.084c5.51,0,9.977,4.467,9.977,9.977v64.322"/>
	</g>
	<g>
		<path style="fill:none;stroke:#FFFFFF;stroke-width:15;stroke-miterlimit:10;" d="M418.045,268.864v99.728
			c0,4.454,3.611,8.065,8.065,8.065h134.825c4.454,0,8.065-3.611,8.065-8.065v-64.065c0-4.454-3.611-8.065-8.065-8.065h-35.768
			c-2.139,0-4.19-0.85-5.703-2.362l-32.894-32.894c-1.583-1.583-3.753-2.437-5.991-2.357l-54.757,1.956
			C421.482,260.959,418.045,264.522,418.045,268.864z"/>
		<path style="fill:none;stroke:#FFFFFF;stroke-width:15;stroke-miterlimit:10;" d="M436.914,261.082V233.32
			c0-5.51,4.467-9.977,9.977-9.977h92.084c5.51,0,9.977,4.467,9.977,9.977v64.322"/>
	</g>
	<g>
		<path style="fill:none;stroke:#FFFFFF;stroke-width:15;stroke-miterlimit:10;" d="M418.045,461.096v99.728
			c0,4.454,3.611,8.065,8.065,8.065h134.825c4.454,0,8.065-3.611,8.065-8.065V496.76c0-4.454-3.611-8.065-8.065-8.065h-35.768
			c-2.139,0-4.19-0.85-5.703-2.362l-32.894-32.894c-1.583-1.583-3.753-2.437-5.991-2.357l-54.757,1.956
			C421.482,453.191,418.045,456.754,418.045,461.096z"/>
		<path style="fill:none;stroke:#FFFFFF;stroke-width:15;stroke-miterlimit:10;" d="M436.914,453.314v-27.762
			c0-5.51,4.467-9.977,9.977-9.977h92.084c5.51,0,9.977,4.467,9.977,9.977v64.322"/>
	</g>
</g>
</svg>
