<?xml version="1.0" encoding="iso-8859-1"?>
<!-- Generator: Adobe Illustrator 27.7.0, SVG Export Plug-In . SVG Version: 6.00 Build 0)  -->
<svg version="1.1" id="Layer_1" xmlns="http://www.w3.org/2000/svg" xmlns:xlink="http://www.w3.org/1999/xlink" x="0px" y="0px"
	 viewBox="0 0 600 600" style="enable-background:new 0 0 600 600;" xml:space="preserve">
<g>
	<path style="fill:#FFFFFF;stroke:#FFFFFF;stroke-width:15;stroke-miterlimit:10;" d="M329,314V141.769
		c0-4.975-1.976-9.746-5.494-13.263l-65.012-65.012C254.976,59.976,250.205,58,245.231,58H53.757C43.398,58,35,66.398,35,76.757
		v373.486C35,460.602,43.398,469,53.757,469h255.486c10.359,0,18.757-8.398,18.757-18.757V355"/>
	<polyline style="fill:none;stroke:#FFFFFF;stroke-width:15;stroke-miterlimit:10;" points="258.494,63.494 258.494,137.5 
		329,137.5 	"/>
	<path style="fill:none;stroke:#FFFFFF;stroke-width:15;stroke-miterlimit:10;" d="M323.5,283.5h-86.269
		c-3.717,0-6.731,3.013-6.731,6.731v23.265c0,5.644-6.528,8.781-10.935,5.256l-62.348-49.879c-3.414-2.732-3.359-7.943,0.114-10.601
		l63.348-48.489c4.428-3.39,10.822-0.232,10.822,5.345v19.641c0,3.717,3.013,6.731,6.731,6.731h89.764"/>
	
		<line style="fill:none;stroke:#FFFFFF;stroke-width:15;stroke-linecap:round;stroke-miterlimit:10;" x1="161.5" y1="201.5" x2="76.5" y2="201.5"/>
	
		<line style="fill:none;stroke:#FFFFFF;stroke-width:15;stroke-linecap:round;stroke-miterlimit:10;" x1="161.5" y1="328.5" x2="76.5" y2="328.5"/>
	
		<line style="fill:none;stroke:#FFFFFF;stroke-width:10.8533;stroke-linecap:round;stroke-miterlimit:10;" x1="123" y1="264.5" x2="78.5" y2="264.5"/>
</g>
<g>
	<path style="fill:none;stroke:#FFFFFF;stroke-width:15;stroke-miterlimit:10;" d="M274.412,471.5C276,488.485,274,513,276,530
		c1,7,7,10,13,10c88,1,176,4,264,0c6,0,11-5,12-10c5-35,1-69,2.242-102.999"/>
	<path style="fill:none;stroke:#FFFFFF;stroke-width:15;stroke-miterlimit:10;" d="M567.5,427.5C567.258,369.499,568,271,568,213
		c0-3-1-7-3-10c-15-17-32-31-48-48c-5-5-10-11-15-16c-4-3-7-7-11-7c-53-5-114.184-1-166.5-1.999"/>
	<polyline style="fill:none;stroke:#FFFFFF;stroke-width:15;stroke-miterlimit:10;" points="497.736,135.495 497.736,209.501 
		568.242,209.501 	"/>
	<path style="fill:none;stroke:#FFFFFF;stroke-width:15;stroke-miterlimit:10;" d="M283.428,355.501h86.269
		c3.717,0,6.731,3.013,6.731,6.731v23.265c0,5.644,6.528,8.781,10.935,5.256l62.348-49.879c3.414-2.732,3.359-7.943-0.114-10.601
		l-63.348-48.489c-4.428-3.39-10.822-0.232-10.822,5.345v19.641c0,3.717-3.013,6.731-6.731,6.731h-89.764V355.5v4v2v2"/>
	
		<line style="fill:none;stroke:#FFFFFF;stroke-width:15;stroke-linecap:round;stroke-miterlimit:10;" x1="525.742" y1="273.501" x2="440.742" y2="273.501"/>
	
		<line style="fill:none;stroke:#FFFFFF;stroke-width:15;stroke-linecap:round;stroke-miterlimit:10;" x1="525.742" y1="400.501" x2="440.742" y2="400.501"/>
	
		<line style="fill:none;stroke:#FFFFFF;stroke-width:10.8533;stroke-linecap:round;stroke-miterlimit:10;" x1="521.242" y1="336.501" x2="476.742" y2="336.501"/>
</g>
</svg>
