<?xml version="1.0" encoding="iso-8859-1"?>
<!-- Generator: Adobe Illustrator 27.7.0, SVG Export Plug-In . SVG Version: 6.00 Build 0)  -->
<svg version="1.1" id="Layer_1" xmlns="http://www.w3.org/2000/svg" xmlns:xlink="http://www.w3.org/1999/xlink" x="0px" y="0px"
	 viewBox="0 0 600 600" style="enable-background:new 0 0 600 600;" xml:space="preserve">
<g>
	<polyline style="fill:none;stroke:#FFFFFF;stroke-width:15;stroke-miterlimit:10;" points="301.5,495.5 298.263,494.822 
		91.5,435.5 90.5,493.5 293.5,563.5 301.5,495.5 505.5,431.5 501.5,483.5 296.5,566.5 	"/>
	<path style="fill:none;stroke:#FFFFFF;stroke-width:15;stroke-miterlimit:10;" d="M93.638,425.498l203.331-61.187
		c0.673-0.203,1.391-0.207,2.066-0.011l205.399,59.358c3.469,1.003,3.534,5.895,0.092,6.988l-201.451,64.013
		c-0.7,0.223-1.451,0.229-2.155,0.017L93.641,432.492C90.173,431.452,90.171,426.541,93.638,425.498z"/>
</g>
<g>
	<path style="fill:none;stroke:#FFFFFF;stroke-width:15;stroke-miterlimit:10;" d="M30.5,34.851v199.478
		c0,1.199,0.972,2.171,2.171,2.171h143.658c1.199,0,2.171-0.972,2.171-2.171V84.449c0-0.605-0.252-1.182-0.696-1.593l-52.683-48.781
		c-0.399-0.37-0.917-0.576-1.461-0.578c-8.416-0.029-77.511-0.285-90.913-0.815C31.516,32.633,30.5,33.619,30.5,34.851z"/>
	<path style="fill:none;stroke:#FFFFFF;stroke-width:15;stroke-miterlimit:10;" d="M123.66,33.497v46.249
		c0,4.291,3.462,7.779,7.754,7.809l48.347,0.346"/>
	<line style="fill:none;stroke:#FFFFFF;stroke-width:15;stroke-miterlimit:10;" x1="60.5" y1="86.5" x2="94.5" y2="86.5"/>
	<line style="fill:none;stroke:#FFFFFF;stroke-width:15;stroke-miterlimit:10;" x1="59.5" y1="124.5" x2="151.5" y2="124.5"/>
	<line style="fill:none;stroke:#FFFFFF;stroke-width:15;stroke-miterlimit:10;" x1="60" y1="160.5" x2="152" y2="160.5"/>
	<line style="fill:none;stroke:#FFFFFF;stroke-width:15;stroke-miterlimit:10;" x1="60" y1="196.5" x2="152" y2="196.5"/>
</g>
<g>
	<path style="fill:none;stroke:#FFFFFF;stroke-width:15;stroke-miterlimit:10;" d="M223.5,34.851v199.478
		c0,1.199,0.972,2.171,2.171,2.171h143.658c1.199,0,2.171-0.972,2.171-2.171V84.449c0-0.605-0.252-1.182-0.696-1.593l-52.683-48.781
		c-0.399-0.37-0.917-0.576-1.461-0.578c-8.416-0.029-77.511-0.285-90.913-0.815C224.516,32.633,223.5,33.619,223.5,34.851z"/>
	<path style="fill:none;stroke:#FFFFFF;stroke-width:15;stroke-miterlimit:10;" d="M316.66,33.497v46.249
		c0,4.291,3.462,7.779,7.754,7.809l48.347,0.346"/>
	<line style="fill:none;stroke:#FFFFFF;stroke-width:15;stroke-miterlimit:10;" x1="253.5" y1="86.5" x2="287.5" y2="86.5"/>
	<line style="fill:none;stroke:#FFFFFF;stroke-width:15;stroke-miterlimit:10;" x1="252.5" y1="124.5" x2="344.5" y2="124.5"/>
	<line style="fill:none;stroke:#FFFFFF;stroke-width:15;stroke-miterlimit:10;" x1="253" y1="160.5" x2="345" y2="160.5"/>
	<line style="fill:none;stroke:#FFFFFF;stroke-width:15;stroke-miterlimit:10;" x1="253" y1="196.5" x2="345" y2="196.5"/>
</g>
<g>
	<path style="fill:none;stroke:#FFFFFF;stroke-width:15;stroke-miterlimit:10;" d="M420.5,34.851v199.478
		c0,1.199,0.972,2.171,2.171,2.171h143.658c1.199,0,2.171-0.972,2.171-2.171V84.449c0-0.605-0.252-1.182-0.696-1.593l-52.683-48.781
		c-0.399-0.37-0.917-0.576-1.461-0.578c-8.416-0.029-77.511-0.285-90.913-0.815C421.516,32.633,420.5,33.619,420.5,34.851z"/>
	<path style="fill:none;stroke:#FFFFFF;stroke-width:15;stroke-miterlimit:10;" d="M513.66,33.497v46.249
		c0,4.291,3.462,7.779,7.754,7.809l48.347,0.346"/>
	<line style="fill:none;stroke:#FFFFFF;stroke-width:15;stroke-miterlimit:10;" x1="450.5" y1="86.5" x2="484.5" y2="86.5"/>
	<line style="fill:none;stroke:#FFFFFF;stroke-width:15;stroke-miterlimit:10;" x1="449.5" y1="124.5" x2="541.5" y2="124.5"/>
	<line style="fill:none;stroke:#FFFFFF;stroke-width:15;stroke-miterlimit:10;" x1="450" y1="160.5" x2="542" y2="160.5"/>
	<line style="fill:none;stroke:#FFFFFF;stroke-width:15;stroke-miterlimit:10;" x1="450" y1="196.5" x2="542" y2="196.5"/>
</g>
<g>
	<path style="fill:none;stroke:#FFFFFF;stroke-width:13.1775;stroke-miterlimit:10;" d="M180.5,310.5l28.979,30
		c0,0,14.663-73-47.077-59s-57.763-44.705-57.763-44.705"/>
	<line style="fill:none;stroke:#FFFFFF;stroke-width:13.1775;stroke-miterlimit:10;" x1="244.5" y1="317.5" x2="208.5" y2="349.5"/>
</g>
<g>
	<path style="fill:none;stroke:#FFFFFF;stroke-width:13.1775;stroke-miterlimit:10;" d="M426.486,314.638l-28.979,30
		c0,0-14.663-73,47.077-59s57.763-44.705,57.763-44.705"/>
	
		<line style="fill:none;stroke:#FFFFFF;stroke-width:13.1775;stroke-miterlimit:10;" x1="362.486" y1="321.638" x2="398.486" y2="353.638"/>
</g>
<line style="fill:none;stroke:#FFFFFF;stroke-width:13.1775;stroke-miterlimit:10;" x1="294.96" y1="240.748" x2="294.96" y2="416.5"/>
<polyline style="fill:none;stroke:#FFFFFF;stroke-width:15;stroke-miterlimit:10;" points="321,394 295,420 269,394 "/>
</svg>
